<svg xmlns="http://www.w3.org/2000/svg" width="128" height="128" viewBox="0 0 128 128" fill="none">
  <defs>
    <linearGradient id="g" x1="16" y1="14" x2="109" y2="112" gradientUnits="userSpaceOnUse">
      <stop stop-color="#84B29A" />
      <stop offset="1" stop-color="#355B4C" />
    </linearGradient>
  </defs>
  <rect x="10" y="10" width="108" height="108" rx="34" fill="url(#g)" />
  <path d="M66.54 31.5C75.86 31.5 83.42 39.05 83.42 48.37C83.42 57.7 75.86 65.25 66.54 65.25H61.63V91.15C61.63 94.1 59.24 96.5 56.29 96.5C53.34 96.5 50.95 94.1 50.95 91.15V61.96C50.95 58.83 53.49 56.29 56.62 56.29H66.54C69.96 56.29 72.74 53.51 72.74 50.09C72.74 46.67 69.96 43.89 66.54 43.89C63.11 43.89 60.34 46.67 60.34 50.09C60.34 53.04 57.95 55.43 54.99 55.43C52.04 55.43 49.65 53.04 49.65 50.09C49.65 39.05 57.2 31.5 66.54 31.5Z" fill="#F4F2EC"/>
  <circle cx="82.9" cy="80.2" r="6.1" fill="#F4F2EC"/>
</svg>
